<mxfile host="app.diagrams.net" agent="Mozilla/5.0 (Windows NT 10.0; Win64; x64) AppleWebKit/537.36 (KHTML, like Gecko) Chrome/131.0.0.0 Safari/537.36" version="26.0.4">
  <diagram id="C5RBs43oDa-KdzZeNtuy" name="Page-1">
    <mxGraphModel dx="2867" dy="1178" grid="1" gridSize="10" guides="1" tooltips="1" connect="1" arrows="1" fold="1" page="1" pageScale="1" pageWidth="827" pageHeight="1169" math="0" shadow="0">
      <root>
        <mxCell id="WIyWlLk6GJQsqaUBKTNV-0" />
        <mxCell id="WIyWlLk6GJQsqaUBKTNV-1" parent="WIyWlLk6GJQsqaUBKTNV-0" />
        <mxCell id="0vWYwco79I7wmp7xxKqI-1" style="edgeStyle=orthogonalEdgeStyle;rounded=0;orthogonalLoop=1;jettySize=auto;html=1;exitX=0.5;exitY=1;exitDx=0;exitDy=0;exitPerimeter=0;entryX=0.5;entryY=0;entryDx=0;entryDy=0;" edge="1" parent="WIyWlLk6GJQsqaUBKTNV-1" target="0vWYwco79I7wmp7xxKqI-3">
          <mxGeometry relative="1" as="geometry">
            <mxPoint x="205" y="151" as="sourcePoint" />
          </mxGeometry>
        </mxCell>
        <mxCell id="0vWYwco79I7wmp7xxKqI-2" value="START" style="strokeWidth=2;html=1;shape=mxgraph.flowchart.start_1;whiteSpace=wrap;" vertex="1" parent="WIyWlLk6GJQsqaUBKTNV-1">
          <mxGeometry x="157.5" y="91" width="100" height="60" as="geometry" />
        </mxCell>
        <mxCell id="0vWYwco79I7wmp7xxKqI-3" value="READ MONTH" style="shape=parallelogram;html=1;strokeWidth=2;perimeter=parallelogramPerimeter;whiteSpace=wrap;rounded=1;arcSize=12;size=0.23;" vertex="1" parent="WIyWlLk6GJQsqaUBKTNV-1">
          <mxGeometry x="100" y="201" width="210" height="60" as="geometry" />
        </mxCell>
        <mxCell id="0vWYwco79I7wmp7xxKqI-4" style="edgeStyle=orthogonalEdgeStyle;rounded=0;orthogonalLoop=1;jettySize=auto;html=1;exitX=0.5;exitY=1;exitDx=0;exitDy=0;exitPerimeter=0;" edge="1" parent="WIyWlLk6GJQsqaUBKTNV-1" source="0vWYwco79I7wmp7xxKqI-6" target="0vWYwco79I7wmp7xxKqI-30">
          <mxGeometry relative="1" as="geometry" />
        </mxCell>
        <mxCell id="0vWYwco79I7wmp7xxKqI-5" value="YES" style="edgeLabel;html=1;align=center;verticalAlign=middle;resizable=0;points=[];" vertex="1" connectable="0" parent="0vWYwco79I7wmp7xxKqI-4">
          <mxGeometry x="-0.4717" relative="1" as="geometry">
            <mxPoint as="offset" />
          </mxGeometry>
        </mxCell>
        <mxCell id="0vWYwco79I7wmp7xxKqI-6" value="MONTH= 1" style="strokeWidth=2;html=1;shape=mxgraph.flowchart.decision;whiteSpace=wrap;" vertex="1" parent="WIyWlLk6GJQsqaUBKTNV-1">
          <mxGeometry x="157.5" y="521" width="95" height="100" as="geometry" />
        </mxCell>
        <mxCell id="0vWYwco79I7wmp7xxKqI-7" style="edgeStyle=orthogonalEdgeStyle;rounded=0;orthogonalLoop=1;jettySize=auto;html=1;exitX=1;exitY=0.5;exitDx=0;exitDy=0;exitPerimeter=0;" edge="1" parent="WIyWlLk6GJQsqaUBKTNV-1" source="0vWYwco79I7wmp7xxKqI-11" target="0vWYwco79I7wmp7xxKqI-14">
          <mxGeometry relative="1" as="geometry" />
        </mxCell>
        <mxCell id="0vWYwco79I7wmp7xxKqI-8" value="NO" style="edgeLabel;html=1;align=center;verticalAlign=middle;resizable=0;points=[];" vertex="1" connectable="0" parent="0vWYwco79I7wmp7xxKqI-7">
          <mxGeometry x="-0.1742" y="-2" relative="1" as="geometry">
            <mxPoint as="offset" />
          </mxGeometry>
        </mxCell>
        <mxCell id="0vWYwco79I7wmp7xxKqI-9" style="edgeStyle=orthogonalEdgeStyle;rounded=0;orthogonalLoop=1;jettySize=auto;html=1;exitX=0.5;exitY=1;exitDx=0;exitDy=0;exitPerimeter=0;entryX=0.5;entryY=0;entryDx=0;entryDy=0;" edge="1" parent="WIyWlLk6GJQsqaUBKTNV-1" source="0vWYwco79I7wmp7xxKqI-11" target="0vWYwco79I7wmp7xxKqI-29">
          <mxGeometry relative="1" as="geometry" />
        </mxCell>
        <mxCell id="0vWYwco79I7wmp7xxKqI-10" value="YES" style="edgeLabel;html=1;align=center;verticalAlign=middle;resizable=0;points=[];" vertex="1" connectable="0" parent="0vWYwco79I7wmp7xxKqI-9">
          <mxGeometry x="-0.28" y="-1" relative="1" as="geometry">
            <mxPoint as="offset" />
          </mxGeometry>
        </mxCell>
        <mxCell id="0vWYwco79I7wmp7xxKqI-11" value="MONTH= 2" style="strokeWidth=2;html=1;shape=mxgraph.flowchart.decision;whiteSpace=wrap;" vertex="1" parent="WIyWlLk6GJQsqaUBKTNV-1">
          <mxGeometry x="347.25" y="521" width="95" height="100" as="geometry" />
        </mxCell>
        <mxCell id="0vWYwco79I7wmp7xxKqI-12" style="edgeStyle=orthogonalEdgeStyle;rounded=0;orthogonalLoop=1;jettySize=auto;html=1;exitX=0.5;exitY=1;exitDx=0;exitDy=0;exitPerimeter=0;entryX=0.5;entryY=0;entryDx=0;entryDy=0;" edge="1" parent="WIyWlLk6GJQsqaUBKTNV-1" source="0vWYwco79I7wmp7xxKqI-14" target="0vWYwco79I7wmp7xxKqI-32">
          <mxGeometry relative="1" as="geometry" />
        </mxCell>
        <mxCell id="0vWYwco79I7wmp7xxKqI-13" value="YES" style="edgeLabel;html=1;align=center;verticalAlign=middle;resizable=0;points=[];" vertex="1" connectable="0" parent="0vWYwco79I7wmp7xxKqI-12">
          <mxGeometry x="-0.28" y="2" relative="1" as="geometry">
            <mxPoint as="offset" />
          </mxGeometry>
        </mxCell>
        <mxCell id="0vWYwco79I7wmp7xxKqI-14" value="MONTH= 3" style="strokeWidth=2;html=1;shape=mxgraph.flowchart.decision;whiteSpace=wrap;" vertex="1" parent="WIyWlLk6GJQsqaUBKTNV-1">
          <mxGeometry x="531.25" y="521" width="95" height="100" as="geometry" />
        </mxCell>
        <mxCell id="0vWYwco79I7wmp7xxKqI-15" style="edgeStyle=orthogonalEdgeStyle;rounded=0;orthogonalLoop=1;jettySize=auto;html=1;exitX=1;exitY=0.5;exitDx=0;exitDy=0;exitPerimeter=0;" edge="1" parent="WIyWlLk6GJQsqaUBKTNV-1" source="0vWYwco79I7wmp7xxKqI-19" target="0vWYwco79I7wmp7xxKqI-22">
          <mxGeometry relative="1" as="geometry" />
        </mxCell>
        <mxCell id="0vWYwco79I7wmp7xxKqI-16" value="NO" style="edgeLabel;html=1;align=center;verticalAlign=middle;resizable=0;points=[];" vertex="1" connectable="0" parent="0vWYwco79I7wmp7xxKqI-15">
          <mxGeometry x="-0.1795" y="1" relative="1" as="geometry">
            <mxPoint as="offset" />
          </mxGeometry>
        </mxCell>
        <mxCell id="0vWYwco79I7wmp7xxKqI-17" style="edgeStyle=orthogonalEdgeStyle;rounded=0;orthogonalLoop=1;jettySize=auto;html=1;exitX=0.5;exitY=1;exitDx=0;exitDy=0;exitPerimeter=0;" edge="1" parent="WIyWlLk6GJQsqaUBKTNV-1" source="0vWYwco79I7wmp7xxKqI-19" target="0vWYwco79I7wmp7xxKqI-33">
          <mxGeometry relative="1" as="geometry" />
        </mxCell>
        <mxCell id="0vWYwco79I7wmp7xxKqI-18" value="YES" style="edgeLabel;html=1;align=center;verticalAlign=middle;resizable=0;points=[];" vertex="1" connectable="0" parent="0vWYwco79I7wmp7xxKqI-17">
          <mxGeometry x="-0.33" relative="1" as="geometry">
            <mxPoint as="offset" />
          </mxGeometry>
        </mxCell>
        <mxCell id="0vWYwco79I7wmp7xxKqI-19" value="MONTH= 4" style="strokeWidth=2;html=1;shape=mxgraph.flowchart.decision;whiteSpace=wrap;" vertex="1" parent="WIyWlLk6GJQsqaUBKTNV-1">
          <mxGeometry x="711.25" y="521" width="95" height="100" as="geometry" />
        </mxCell>
        <mxCell id="0vWYwco79I7wmp7xxKqI-20" style="edgeStyle=orthogonalEdgeStyle;rounded=0;orthogonalLoop=1;jettySize=auto;html=1;exitX=0.5;exitY=1;exitDx=0;exitDy=0;exitPerimeter=0;" edge="1" parent="WIyWlLk6GJQsqaUBKTNV-1" source="0vWYwco79I7wmp7xxKqI-22" target="0vWYwco79I7wmp7xxKqI-34">
          <mxGeometry relative="1" as="geometry" />
        </mxCell>
        <mxCell id="0vWYwco79I7wmp7xxKqI-21" value="YES" style="edgeLabel;html=1;align=center;verticalAlign=middle;resizable=0;points=[];" vertex="1" connectable="0" parent="0vWYwco79I7wmp7xxKqI-20">
          <mxGeometry x="-0.2799" y="5" relative="1" as="geometry">
            <mxPoint as="offset" />
          </mxGeometry>
        </mxCell>
        <mxCell id="0vWYwco79I7wmp7xxKqI-22" value="MONTH= 5" style="strokeWidth=2;html=1;shape=mxgraph.flowchart.decision;whiteSpace=wrap;" vertex="1" parent="WIyWlLk6GJQsqaUBKTNV-1">
          <mxGeometry x="898.75" y="521" width="95" height="100" as="geometry" />
        </mxCell>
        <mxCell id="0vWYwco79I7wmp7xxKqI-23" style="edgeStyle=orthogonalEdgeStyle;rounded=0;orthogonalLoop=1;jettySize=auto;html=1;exitX=0.5;exitY=1;exitDx=0;exitDy=0;exitPerimeter=0;entryX=0.5;entryY=0;entryDx=0;entryDy=0;" edge="1" parent="WIyWlLk6GJQsqaUBKTNV-1" source="0vWYwco79I7wmp7xxKqI-25" target="0vWYwco79I7wmp7xxKqI-36">
          <mxGeometry relative="1" as="geometry" />
        </mxCell>
        <mxCell id="0vWYwco79I7wmp7xxKqI-24" value="YES" style="edgeLabel;html=1;align=center;verticalAlign=middle;resizable=0;points=[];" vertex="1" connectable="0" parent="0vWYwco79I7wmp7xxKqI-23">
          <mxGeometry x="-0.28" relative="1" as="geometry">
            <mxPoint as="offset" />
          </mxGeometry>
        </mxCell>
        <mxCell id="0vWYwco79I7wmp7xxKqI-25" value="MONTH= 6" style="strokeWidth=2;html=1;shape=mxgraph.flowchart.decision;whiteSpace=wrap;" vertex="1" parent="WIyWlLk6GJQsqaUBKTNV-1">
          <mxGeometry x="1091.25" y="521" width="95" height="100" as="geometry" />
        </mxCell>
        <mxCell id="0vWYwco79I7wmp7xxKqI-29" value="PRINT &quot; FEBRUARY &quot;" style="shape=parallelogram;html=1;strokeWidth=2;perimeter=parallelogramPerimeter;whiteSpace=wrap;rounded=1;arcSize=12;size=0.23;" vertex="1" parent="WIyWlLk6GJQsqaUBKTNV-1">
          <mxGeometry x="291" y="701" width="207.5" height="60" as="geometry" />
        </mxCell>
        <mxCell id="0vWYwco79I7wmp7xxKqI-116" style="edgeStyle=orthogonalEdgeStyle;rounded=0;orthogonalLoop=1;jettySize=auto;html=1;exitX=0.5;exitY=1;exitDx=0;exitDy=0;" edge="1" parent="WIyWlLk6GJQsqaUBKTNV-1" source="0vWYwco79I7wmp7xxKqI-30" target="0vWYwco79I7wmp7xxKqI-109">
          <mxGeometry relative="1" as="geometry">
            <Array as="points">
              <mxPoint x="170" y="761" />
            </Array>
          </mxGeometry>
        </mxCell>
        <mxCell id="0vWYwco79I7wmp7xxKqI-30" value="PRINT &quot; JANUARY &quot;" style="shape=parallelogram;html=1;strokeWidth=2;perimeter=parallelogramPerimeter;whiteSpace=wrap;rounded=1;arcSize=12;size=0.23;" vertex="1" parent="WIyWlLk6GJQsqaUBKTNV-1">
          <mxGeometry x="102.5" y="701" width="207.5" height="60" as="geometry" />
        </mxCell>
        <mxCell id="0vWYwco79I7wmp7xxKqI-32" value="PRINT &quot; MARCH&quot;" style="shape=parallelogram;html=1;strokeWidth=2;perimeter=parallelogramPerimeter;whiteSpace=wrap;rounded=1;arcSize=12;size=0.23;" vertex="1" parent="WIyWlLk6GJQsqaUBKTNV-1">
          <mxGeometry x="475" y="701" width="207.5" height="60" as="geometry" />
        </mxCell>
        <mxCell id="0vWYwco79I7wmp7xxKqI-33" value="PRINT &quot; APRIL &quot;" style="shape=parallelogram;html=1;strokeWidth=2;perimeter=parallelogramPerimeter;whiteSpace=wrap;rounded=1;arcSize=12;size=0.23;" vertex="1" parent="WIyWlLk6GJQsqaUBKTNV-1">
          <mxGeometry x="655" y="701" width="207.5" height="60" as="geometry" />
        </mxCell>
        <mxCell id="0vWYwco79I7wmp7xxKqI-34" value="PRINT &quot; MAY &quot;" style="shape=parallelogram;html=1;strokeWidth=2;perimeter=parallelogramPerimeter;whiteSpace=wrap;rounded=1;arcSize=12;size=0.23;" vertex="1" parent="WIyWlLk6GJQsqaUBKTNV-1">
          <mxGeometry x="842.5" y="701" width="207.5" height="60" as="geometry" />
        </mxCell>
        <mxCell id="0vWYwco79I7wmp7xxKqI-36" value="PRINT &quot; JUNE &quot;" style="shape=parallelogram;html=1;strokeWidth=2;perimeter=parallelogramPerimeter;whiteSpace=wrap;rounded=1;arcSize=12;size=0.23;" vertex="1" parent="WIyWlLk6GJQsqaUBKTNV-1">
          <mxGeometry x="1035" y="701" width="207.5" height="60" as="geometry" />
        </mxCell>
        <mxCell id="0vWYwco79I7wmp7xxKqI-38" style="edgeStyle=orthogonalEdgeStyle;rounded=0;orthogonalLoop=1;jettySize=auto;html=1;exitX=1;exitY=0.5;exitDx=0;exitDy=0;exitPerimeter=0;entryX=0;entryY=0.5;entryDx=0;entryDy=0;entryPerimeter=0;" edge="1" parent="WIyWlLk6GJQsqaUBKTNV-1" source="0vWYwco79I7wmp7xxKqI-6" target="0vWYwco79I7wmp7xxKqI-11">
          <mxGeometry relative="1" as="geometry" />
        </mxCell>
        <mxCell id="0vWYwco79I7wmp7xxKqI-39" value="NO" style="edgeLabel;html=1;align=center;verticalAlign=middle;resizable=0;points=[];" vertex="1" connectable="0" parent="0vWYwco79I7wmp7xxKqI-38">
          <mxGeometry x="-0.1873" y="-1" relative="1" as="geometry">
            <mxPoint as="offset" />
          </mxGeometry>
        </mxCell>
        <mxCell id="0vWYwco79I7wmp7xxKqI-40" style="edgeStyle=orthogonalEdgeStyle;rounded=0;orthogonalLoop=1;jettySize=auto;html=1;exitX=1;exitY=0.5;exitDx=0;exitDy=0;exitPerimeter=0;entryX=0;entryY=0.5;entryDx=0;entryDy=0;entryPerimeter=0;" edge="1" parent="WIyWlLk6GJQsqaUBKTNV-1" source="0vWYwco79I7wmp7xxKqI-14" target="0vWYwco79I7wmp7xxKqI-19">
          <mxGeometry relative="1" as="geometry" />
        </mxCell>
        <mxCell id="0vWYwco79I7wmp7xxKqI-41" value="NO" style="edgeLabel;html=1;align=center;verticalAlign=middle;resizable=0;points=[];" vertex="1" connectable="0" parent="0vWYwco79I7wmp7xxKqI-40">
          <mxGeometry x="-0.1118" y="-3" relative="1" as="geometry">
            <mxPoint as="offset" />
          </mxGeometry>
        </mxCell>
        <mxCell id="0vWYwco79I7wmp7xxKqI-42" style="edgeStyle=orthogonalEdgeStyle;rounded=0;orthogonalLoop=1;jettySize=auto;html=1;exitX=1;exitY=0.5;exitDx=0;exitDy=0;exitPerimeter=0;entryX=0;entryY=0.5;entryDx=0;entryDy=0;entryPerimeter=0;" edge="1" parent="WIyWlLk6GJQsqaUBKTNV-1" source="0vWYwco79I7wmp7xxKqI-22" target="0vWYwco79I7wmp7xxKqI-25">
          <mxGeometry relative="1" as="geometry" />
        </mxCell>
        <mxCell id="0vWYwco79I7wmp7xxKqI-43" value="NO" style="edgeLabel;html=1;align=center;verticalAlign=middle;resizable=0;points=[];" vertex="1" connectable="0" parent="0vWYwco79I7wmp7xxKqI-42">
          <mxGeometry x="-0.0882" y="-3" relative="1" as="geometry">
            <mxPoint as="offset" />
          </mxGeometry>
        </mxCell>
        <mxCell id="0vWYwco79I7wmp7xxKqI-52" style="edgeStyle=orthogonalEdgeStyle;rounded=0;orthogonalLoop=1;jettySize=auto;html=1;exitX=1;exitY=0.5;exitDx=0;exitDy=0;exitPerimeter=0;entryX=0;entryY=0.5;entryDx=0;entryDy=0;" edge="1" parent="WIyWlLk6GJQsqaUBKTNV-1" source="0vWYwco79I7wmp7xxKqI-54" target="0vWYwco79I7wmp7xxKqI-59">
          <mxGeometry relative="1" as="geometry">
            <Array as="points">
              <mxPoint x="337" y="396" />
              <mxPoint x="408" y="396" />
            </Array>
          </mxGeometry>
        </mxCell>
        <mxCell id="0vWYwco79I7wmp7xxKqI-53" value="NO" style="edgeLabel;html=1;align=center;verticalAlign=middle;resizable=0;points=[];" vertex="1" connectable="0" parent="0vWYwco79I7wmp7xxKqI-52">
          <mxGeometry x="-0.1405" y="3" relative="1" as="geometry">
            <mxPoint as="offset" />
          </mxGeometry>
        </mxCell>
        <mxCell id="0vWYwco79I7wmp7xxKqI-54" value="MONTH &amp;gt;= 1 AND MONTH&amp;lt;= 12" style="strokeWidth=2;html=1;shape=mxgraph.flowchart.decision;whiteSpace=wrap;" vertex="1" parent="WIyWlLk6GJQsqaUBKTNV-1">
          <mxGeometry x="30" y="340" width="267.5" height="111" as="geometry" />
        </mxCell>
        <mxCell id="0vWYwco79I7wmp7xxKqI-55" style="edgeStyle=orthogonalEdgeStyle;rounded=0;orthogonalLoop=1;jettySize=auto;html=1;exitX=0.5;exitY=1;exitDx=0;exitDy=0;entryX=0.5;entryY=0;entryDx=0;entryDy=0;entryPerimeter=0;" edge="1" parent="WIyWlLk6GJQsqaUBKTNV-1" source="0vWYwco79I7wmp7xxKqI-3" target="0vWYwco79I7wmp7xxKqI-54">
          <mxGeometry relative="1" as="geometry" />
        </mxCell>
        <mxCell id="0vWYwco79I7wmp7xxKqI-56" style="edgeStyle=orthogonalEdgeStyle;rounded=0;orthogonalLoop=1;jettySize=auto;html=1;exitX=0.5;exitY=1;exitDx=0;exitDy=0;exitPerimeter=0;entryX=0.5;entryY=0;entryDx=0;entryDy=0;entryPerimeter=0;" edge="1" parent="WIyWlLk6GJQsqaUBKTNV-1" source="0vWYwco79I7wmp7xxKqI-54" target="0vWYwco79I7wmp7xxKqI-6">
          <mxGeometry relative="1" as="geometry" />
        </mxCell>
        <mxCell id="0vWYwco79I7wmp7xxKqI-57" value="YES" style="edgeLabel;html=1;align=center;verticalAlign=middle;resizable=0;points=[];" vertex="1" connectable="0" parent="0vWYwco79I7wmp7xxKqI-56">
          <mxGeometry x="-0.1406" y="-1" relative="1" as="geometry">
            <mxPoint as="offset" />
          </mxGeometry>
        </mxCell>
        <mxCell id="0vWYwco79I7wmp7xxKqI-58" style="edgeStyle=orthogonalEdgeStyle;rounded=0;orthogonalLoop=1;jettySize=auto;html=1;exitX=0.5;exitY=0;exitDx=0;exitDy=0;entryX=1;entryY=0.5;entryDx=0;entryDy=0;" edge="1" parent="WIyWlLk6GJQsqaUBKTNV-1" source="0vWYwco79I7wmp7xxKqI-59" target="0vWYwco79I7wmp7xxKqI-3">
          <mxGeometry relative="1" as="geometry">
            <Array as="points">
              <mxPoint x="516" y="231" />
            </Array>
          </mxGeometry>
        </mxCell>
        <mxCell id="0vWYwco79I7wmp7xxKqI-59" value="PRINT &quot;WRONG MONTH&quot;" style="shape=parallelogram;html=1;strokeWidth=2;perimeter=parallelogramPerimeter;whiteSpace=wrap;rounded=1;arcSize=12;size=0.23;" vertex="1" parent="WIyWlLk6GJQsqaUBKTNV-1">
          <mxGeometry x="376.25" y="365.5" width="278.75" height="60" as="geometry" />
        </mxCell>
        <mxCell id="0vWYwco79I7wmp7xxKqI-85" style="edgeStyle=orthogonalEdgeStyle;rounded=0;orthogonalLoop=1;jettySize=auto;html=1;exitX=0.5;exitY=1;exitDx=0;exitDy=0;exitPerimeter=0;" edge="1" parent="WIyWlLk6GJQsqaUBKTNV-1" source="0vWYwco79I7wmp7xxKqI-87" target="0vWYwco79I7wmp7xxKqI-88">
          <mxGeometry relative="1" as="geometry" />
        </mxCell>
        <mxCell id="0vWYwco79I7wmp7xxKqI-86" value="YES" style="edgeLabel;html=1;align=center;verticalAlign=middle;resizable=0;points=[];" vertex="1" connectable="0" parent="0vWYwco79I7wmp7xxKqI-85">
          <mxGeometry x="-0.208" y="-1" relative="1" as="geometry">
            <mxPoint as="offset" />
          </mxGeometry>
        </mxCell>
        <mxCell id="0vWYwco79I7wmp7xxKqI-87" value="MONTH= 7" style="strokeWidth=2;html=1;shape=mxgraph.flowchart.decision;whiteSpace=wrap;" vertex="1" parent="WIyWlLk6GJQsqaUBKTNV-1">
          <mxGeometry x="596.25" y="930" width="95" height="100" as="geometry" />
        </mxCell>
        <mxCell id="0vWYwco79I7wmp7xxKqI-110" style="edgeStyle=orthogonalEdgeStyle;rounded=0;orthogonalLoop=1;jettySize=auto;html=1;exitX=0.5;exitY=1;exitDx=0;exitDy=0;" edge="1" parent="WIyWlLk6GJQsqaUBKTNV-1" source="0vWYwco79I7wmp7xxKqI-88" target="0vWYwco79I7wmp7xxKqI-109">
          <mxGeometry relative="1" as="geometry" />
        </mxCell>
        <mxCell id="0vWYwco79I7wmp7xxKqI-88" value="PRINT &quot; JULY &quot;" style="shape=parallelogram;html=1;strokeWidth=2;perimeter=parallelogramPerimeter;whiteSpace=wrap;rounded=1;arcSize=12;size=0.23;" vertex="1" parent="WIyWlLk6GJQsqaUBKTNV-1">
          <mxGeometry x="540" y="1109" width="207.5" height="60" as="geometry" />
        </mxCell>
        <mxCell id="0vWYwco79I7wmp7xxKqI-89" style="edgeStyle=orthogonalEdgeStyle;rounded=0;orthogonalLoop=1;jettySize=auto;html=1;exitX=0.5;exitY=1;exitDx=0;exitDy=0;exitPerimeter=0;" edge="1" parent="WIyWlLk6GJQsqaUBKTNV-1" source="0vWYwco79I7wmp7xxKqI-90" target="0vWYwco79I7wmp7xxKqI-91">
          <mxGeometry relative="1" as="geometry" />
        </mxCell>
        <mxCell id="0vWYwco79I7wmp7xxKqI-123" value="YES" style="edgeLabel;html=1;align=center;verticalAlign=middle;resizable=0;points=[];" vertex="1" connectable="0" parent="0vWYwco79I7wmp7xxKqI-89">
          <mxGeometry x="-0.179" relative="1" as="geometry">
            <mxPoint as="offset" />
          </mxGeometry>
        </mxCell>
        <mxCell id="0vWYwco79I7wmp7xxKqI-90" value="MONTH= 8" style="strokeWidth=2;html=1;shape=mxgraph.flowchart.decision;whiteSpace=wrap;" vertex="1" parent="WIyWlLk6GJQsqaUBKTNV-1">
          <mxGeometry x="790" y="930" width="95" height="100" as="geometry" />
        </mxCell>
        <mxCell id="0vWYwco79I7wmp7xxKqI-91" value="PRINT &quot; AUGUST &quot;" style="shape=parallelogram;html=1;strokeWidth=2;perimeter=parallelogramPerimeter;whiteSpace=wrap;rounded=1;arcSize=12;size=0.23;" vertex="1" parent="WIyWlLk6GJQsqaUBKTNV-1">
          <mxGeometry x="733.75" y="1109" width="207.5" height="60" as="geometry" />
        </mxCell>
        <mxCell id="0vWYwco79I7wmp7xxKqI-92" style="edgeStyle=orthogonalEdgeStyle;rounded=0;orthogonalLoop=1;jettySize=auto;html=1;exitX=0.5;exitY=1;exitDx=0;exitDy=0;exitPerimeter=0;" edge="1" parent="WIyWlLk6GJQsqaUBKTNV-1" source="0vWYwco79I7wmp7xxKqI-93" target="0vWYwco79I7wmp7xxKqI-94">
          <mxGeometry relative="1" as="geometry" />
        </mxCell>
        <mxCell id="0vWYwco79I7wmp7xxKqI-124" value="YES" style="edgeLabel;html=1;align=center;verticalAlign=middle;resizable=0;points=[];" vertex="1" connectable="0" parent="0vWYwco79I7wmp7xxKqI-92">
          <mxGeometry x="-0.5922" y="-2" relative="1" as="geometry">
            <mxPoint as="offset" />
          </mxGeometry>
        </mxCell>
        <mxCell id="0vWYwco79I7wmp7xxKqI-93" value="MONTH= 9" style="strokeWidth=2;html=1;shape=mxgraph.flowchart.decision;whiteSpace=wrap;" vertex="1" parent="WIyWlLk6GJQsqaUBKTNV-1">
          <mxGeometry x="974.25" y="930" width="95" height="100" as="geometry" />
        </mxCell>
        <mxCell id="0vWYwco79I7wmp7xxKqI-94" value="PRINT &quot; SEPTEMBER &quot;" style="shape=parallelogram;html=1;strokeWidth=2;perimeter=parallelogramPerimeter;whiteSpace=wrap;rounded=1;arcSize=12;size=0.23;" vertex="1" parent="WIyWlLk6GJQsqaUBKTNV-1">
          <mxGeometry x="918" y="1109" width="207.5" height="60" as="geometry" />
        </mxCell>
        <mxCell id="0vWYwco79I7wmp7xxKqI-95" style="edgeStyle=orthogonalEdgeStyle;rounded=0;orthogonalLoop=1;jettySize=auto;html=1;exitX=0.5;exitY=1;exitDx=0;exitDy=0;exitPerimeter=0;" edge="1" parent="WIyWlLk6GJQsqaUBKTNV-1" source="0vWYwco79I7wmp7xxKqI-96" target="0vWYwco79I7wmp7xxKqI-97">
          <mxGeometry relative="1" as="geometry" />
        </mxCell>
        <mxCell id="0vWYwco79I7wmp7xxKqI-125" value="YES" style="edgeLabel;html=1;align=center;verticalAlign=middle;resizable=0;points=[];" vertex="1" connectable="0" parent="0vWYwco79I7wmp7xxKqI-95">
          <mxGeometry x="-0.1226" y="3" relative="1" as="geometry">
            <mxPoint as="offset" />
          </mxGeometry>
        </mxCell>
        <mxCell id="0vWYwco79I7wmp7xxKqI-96" value="MONTH= 10" style="strokeWidth=2;html=1;shape=mxgraph.flowchart.decision;whiteSpace=wrap;" vertex="1" parent="WIyWlLk6GJQsqaUBKTNV-1">
          <mxGeometry x="1164.25" y="930" width="95" height="100" as="geometry" />
        </mxCell>
        <mxCell id="0vWYwco79I7wmp7xxKqI-97" value="PRINT &quot; OCTOBER &quot;" style="shape=parallelogram;html=1;strokeWidth=2;perimeter=parallelogramPerimeter;whiteSpace=wrap;rounded=1;arcSize=12;size=0.23;" vertex="1" parent="WIyWlLk6GJQsqaUBKTNV-1">
          <mxGeometry x="1108" y="1109" width="207.5" height="60" as="geometry" />
        </mxCell>
        <mxCell id="0vWYwco79I7wmp7xxKqI-98" style="edgeStyle=orthogonalEdgeStyle;rounded=0;orthogonalLoop=1;jettySize=auto;html=1;exitX=0.5;exitY=1;exitDx=0;exitDy=0;exitPerimeter=0;entryX=0.5;entryY=0;entryDx=0;entryDy=0;" edge="1" parent="WIyWlLk6GJQsqaUBKTNV-1" source="0vWYwco79I7wmp7xxKqI-99" target="0vWYwco79I7wmp7xxKqI-100">
          <mxGeometry relative="1" as="geometry" />
        </mxCell>
        <mxCell id="0vWYwco79I7wmp7xxKqI-126" value="YES" style="edgeLabel;html=1;align=center;verticalAlign=middle;resizable=0;points=[];" vertex="1" connectable="0" parent="0vWYwco79I7wmp7xxKqI-98">
          <mxGeometry x="-0.4828" y="4" relative="1" as="geometry">
            <mxPoint as="offset" />
          </mxGeometry>
        </mxCell>
        <mxCell id="0vWYwco79I7wmp7xxKqI-99" value="MONTH= 11" style="strokeWidth=2;html=1;shape=mxgraph.flowchart.decision;whiteSpace=wrap;" vertex="1" parent="WIyWlLk6GJQsqaUBKTNV-1">
          <mxGeometry x="1354.25" y="930" width="95" height="100" as="geometry" />
        </mxCell>
        <mxCell id="0vWYwco79I7wmp7xxKqI-100" value="PRINT &quot; NOUVEMBER &quot;" style="shape=parallelogram;html=1;strokeWidth=2;perimeter=parallelogramPerimeter;whiteSpace=wrap;rounded=1;arcSize=12;size=0.23;" vertex="1" parent="WIyWlLk6GJQsqaUBKTNV-1">
          <mxGeometry x="1298" y="1109" width="207.5" height="60" as="geometry" />
        </mxCell>
        <mxCell id="0vWYwco79I7wmp7xxKqI-101" style="edgeStyle=orthogonalEdgeStyle;rounded=0;orthogonalLoop=1;jettySize=auto;html=1;exitX=1;exitY=0.5;exitDx=0;exitDy=0;exitPerimeter=0;entryX=0;entryY=0.5;entryDx=0;entryDy=0;entryPerimeter=0;" edge="1" parent="WIyWlLk6GJQsqaUBKTNV-1" source="0vWYwco79I7wmp7xxKqI-87" target="0vWYwco79I7wmp7xxKqI-90">
          <mxGeometry relative="1" as="geometry" />
        </mxCell>
        <mxCell id="0vWYwco79I7wmp7xxKqI-102" style="edgeStyle=orthogonalEdgeStyle;rounded=0;orthogonalLoop=1;jettySize=auto;html=1;exitX=1;exitY=0.5;exitDx=0;exitDy=0;exitPerimeter=0;entryX=0;entryY=0.5;entryDx=0;entryDy=0;entryPerimeter=0;" edge="1" parent="WIyWlLk6GJQsqaUBKTNV-1" source="0vWYwco79I7wmp7xxKqI-90" target="0vWYwco79I7wmp7xxKqI-93">
          <mxGeometry relative="1" as="geometry" />
        </mxCell>
        <mxCell id="0vWYwco79I7wmp7xxKqI-103" style="edgeStyle=orthogonalEdgeStyle;rounded=0;orthogonalLoop=1;jettySize=auto;html=1;exitX=1;exitY=0.5;exitDx=0;exitDy=0;exitPerimeter=0;entryX=0.103;entryY=0.5;entryDx=0;entryDy=0;entryPerimeter=0;" edge="1" parent="WIyWlLk6GJQsqaUBKTNV-1" source="0vWYwco79I7wmp7xxKqI-93" target="0vWYwco79I7wmp7xxKqI-96">
          <mxGeometry relative="1" as="geometry" />
        </mxCell>
        <mxCell id="0vWYwco79I7wmp7xxKqI-104" style="edgeStyle=orthogonalEdgeStyle;rounded=0;orthogonalLoop=1;jettySize=auto;html=1;exitX=1;exitY=0.5;exitDx=0;exitDy=0;exitPerimeter=0;entryX=0;entryY=0.5;entryDx=0;entryDy=0;entryPerimeter=0;" edge="1" parent="WIyWlLk6GJQsqaUBKTNV-1" source="0vWYwco79I7wmp7xxKqI-96" target="0vWYwco79I7wmp7xxKqI-99">
          <mxGeometry relative="1" as="geometry" />
        </mxCell>
        <mxCell id="0vWYwco79I7wmp7xxKqI-105" style="edgeStyle=orthogonalEdgeStyle;rounded=0;orthogonalLoop=1;jettySize=auto;html=1;exitX=0.5;exitY=1;exitDx=0;exitDy=0;exitPerimeter=0;" edge="1" parent="WIyWlLk6GJQsqaUBKTNV-1" source="0vWYwco79I7wmp7xxKqI-106" target="0vWYwco79I7wmp7xxKqI-107">
          <mxGeometry relative="1" as="geometry" />
        </mxCell>
        <mxCell id="0vWYwco79I7wmp7xxKqI-127" value="YES" style="edgeLabel;html=1;align=center;verticalAlign=middle;resizable=0;points=[];" vertex="1" connectable="0" parent="0vWYwco79I7wmp7xxKqI-105">
          <mxGeometry x="-0.1949" y="1" relative="1" as="geometry">
            <mxPoint as="offset" />
          </mxGeometry>
        </mxCell>
        <mxCell id="0vWYwco79I7wmp7xxKqI-106" value="MONTH= 12" style="strokeWidth=2;html=1;shape=mxgraph.flowchart.decision;whiteSpace=wrap;" vertex="1" parent="WIyWlLk6GJQsqaUBKTNV-1">
          <mxGeometry x="1544.25" y="930" width="95" height="100" as="geometry" />
        </mxCell>
        <mxCell id="0vWYwco79I7wmp7xxKqI-115" style="edgeStyle=orthogonalEdgeStyle;rounded=0;orthogonalLoop=1;jettySize=auto;html=1;exitX=0.5;exitY=1;exitDx=0;exitDy=0;" edge="1" parent="WIyWlLk6GJQsqaUBKTNV-1" source="0vWYwco79I7wmp7xxKqI-107" target="0vWYwco79I7wmp7xxKqI-109">
          <mxGeometry relative="1" as="geometry">
            <Array as="points">
              <mxPoint x="1592" y="1200" />
            </Array>
          </mxGeometry>
        </mxCell>
        <mxCell id="0vWYwco79I7wmp7xxKqI-107" value="PRINT &quot; DECEMBER &quot;" style="shape=parallelogram;html=1;strokeWidth=2;perimeter=parallelogramPerimeter;whiteSpace=wrap;rounded=1;arcSize=12;size=0.23;" vertex="1" parent="WIyWlLk6GJQsqaUBKTNV-1">
          <mxGeometry x="1488" y="1109" width="207.5" height="60" as="geometry" />
        </mxCell>
        <mxCell id="0vWYwco79I7wmp7xxKqI-108" style="edgeStyle=orthogonalEdgeStyle;rounded=0;orthogonalLoop=1;jettySize=auto;html=1;exitX=1;exitY=0.5;exitDx=0;exitDy=0;exitPerimeter=0;entryX=0;entryY=0.5;entryDx=0;entryDy=0;entryPerimeter=0;" edge="1" parent="WIyWlLk6GJQsqaUBKTNV-1" source="0vWYwco79I7wmp7xxKqI-99" target="0vWYwco79I7wmp7xxKqI-106">
          <mxGeometry relative="1" as="geometry" />
        </mxCell>
        <mxCell id="0vWYwco79I7wmp7xxKqI-109" value="END" style="strokeWidth=2;html=1;shape=mxgraph.flowchart.terminator;whiteSpace=wrap;" vertex="1" parent="WIyWlLk6GJQsqaUBKTNV-1">
          <mxGeometry x="130" y="1169" width="100" height="60" as="geometry" />
        </mxCell>
        <mxCell id="0vWYwco79I7wmp7xxKqI-111" style="edgeStyle=orthogonalEdgeStyle;rounded=0;orthogonalLoop=1;jettySize=auto;html=1;exitX=0.5;exitY=1;exitDx=0;exitDy=0;entryX=1;entryY=0.5;entryDx=0;entryDy=0;entryPerimeter=0;" edge="1" parent="WIyWlLk6GJQsqaUBKTNV-1" source="0vWYwco79I7wmp7xxKqI-91" target="0vWYwco79I7wmp7xxKqI-109">
          <mxGeometry relative="1" as="geometry" />
        </mxCell>
        <mxCell id="0vWYwco79I7wmp7xxKqI-112" style="edgeStyle=orthogonalEdgeStyle;rounded=0;orthogonalLoop=1;jettySize=auto;html=1;exitX=0.5;exitY=1;exitDx=0;exitDy=0;entryX=1;entryY=0.5;entryDx=0;entryDy=0;entryPerimeter=0;" edge="1" parent="WIyWlLk6GJQsqaUBKTNV-1" source="0vWYwco79I7wmp7xxKqI-94" target="0vWYwco79I7wmp7xxKqI-109">
          <mxGeometry relative="1" as="geometry" />
        </mxCell>
        <mxCell id="0vWYwco79I7wmp7xxKqI-113" style="edgeStyle=orthogonalEdgeStyle;rounded=0;orthogonalLoop=1;jettySize=auto;html=1;exitX=0.5;exitY=1;exitDx=0;exitDy=0;entryX=1;entryY=0.5;entryDx=0;entryDy=0;entryPerimeter=0;" edge="1" parent="WIyWlLk6GJQsqaUBKTNV-1" source="0vWYwco79I7wmp7xxKqI-97" target="0vWYwco79I7wmp7xxKqI-109">
          <mxGeometry relative="1" as="geometry" />
        </mxCell>
        <mxCell id="0vWYwco79I7wmp7xxKqI-114" style="edgeStyle=orthogonalEdgeStyle;rounded=0;orthogonalLoop=1;jettySize=auto;html=1;exitX=0.5;exitY=1;exitDx=0;exitDy=0;entryX=1;entryY=0.5;entryDx=0;entryDy=0;entryPerimeter=0;" edge="1" parent="WIyWlLk6GJQsqaUBKTNV-1" source="0vWYwco79I7wmp7xxKqI-100" target="0vWYwco79I7wmp7xxKqI-109">
          <mxGeometry relative="1" as="geometry" />
        </mxCell>
        <mxCell id="0vWYwco79I7wmp7xxKqI-117" style="edgeStyle=orthogonalEdgeStyle;rounded=0;orthogonalLoop=1;jettySize=auto;html=1;exitX=0.5;exitY=1;exitDx=0;exitDy=0;entryX=0.5;entryY=0;entryDx=0;entryDy=0;entryPerimeter=0;" edge="1" parent="WIyWlLk6GJQsqaUBKTNV-1" source="0vWYwco79I7wmp7xxKqI-29" target="0vWYwco79I7wmp7xxKqI-109">
          <mxGeometry relative="1" as="geometry">
            <Array as="points">
              <mxPoint x="395" y="840" />
              <mxPoint x="170" y="840" />
            </Array>
          </mxGeometry>
        </mxCell>
        <mxCell id="0vWYwco79I7wmp7xxKqI-118" style="edgeStyle=orthogonalEdgeStyle;rounded=0;orthogonalLoop=1;jettySize=auto;html=1;exitX=0.25;exitY=1;exitDx=0;exitDy=0;entryX=0.5;entryY=0;entryDx=0;entryDy=0;entryPerimeter=0;" edge="1" parent="WIyWlLk6GJQsqaUBKTNV-1" source="0vWYwco79I7wmp7xxKqI-33" target="0vWYwco79I7wmp7xxKqI-109">
          <mxGeometry relative="1" as="geometry">
            <Array as="points">
              <mxPoint x="707" y="840" />
              <mxPoint x="170" y="840" />
            </Array>
          </mxGeometry>
        </mxCell>
        <mxCell id="0vWYwco79I7wmp7xxKqI-119" style="edgeStyle=orthogonalEdgeStyle;rounded=0;orthogonalLoop=1;jettySize=auto;html=1;exitX=0.5;exitY=1;exitDx=0;exitDy=0;entryX=0.5;entryY=0;entryDx=0;entryDy=0;entryPerimeter=0;" edge="1" parent="WIyWlLk6GJQsqaUBKTNV-1" source="0vWYwco79I7wmp7xxKqI-34" target="0vWYwco79I7wmp7xxKqI-109">
          <mxGeometry relative="1" as="geometry">
            <Array as="points">
              <mxPoint x="946" y="840" />
              <mxPoint x="170" y="840" />
            </Array>
          </mxGeometry>
        </mxCell>
        <mxCell id="0vWYwco79I7wmp7xxKqI-120" style="edgeStyle=orthogonalEdgeStyle;rounded=0;orthogonalLoop=1;jettySize=auto;html=1;exitX=0.5;exitY=1;exitDx=0;exitDy=0;entryX=0.5;entryY=0;entryDx=0;entryDy=0;entryPerimeter=0;" edge="1" parent="WIyWlLk6GJQsqaUBKTNV-1" source="0vWYwco79I7wmp7xxKqI-36" target="0vWYwco79I7wmp7xxKqI-109">
          <mxGeometry relative="1" as="geometry">
            <Array as="points">
              <mxPoint x="1139" y="840" />
              <mxPoint x="170" y="840" />
            </Array>
          </mxGeometry>
        </mxCell>
        <mxCell id="0vWYwco79I7wmp7xxKqI-121" style="edgeStyle=orthogonalEdgeStyle;rounded=0;orthogonalLoop=1;jettySize=auto;html=1;exitX=1;exitY=0.5;exitDx=0;exitDy=0;exitPerimeter=0;entryX=0.5;entryY=0;entryDx=0;entryDy=0;entryPerimeter=0;" edge="1" parent="WIyWlLk6GJQsqaUBKTNV-1" source="0vWYwco79I7wmp7xxKqI-25" target="0vWYwco79I7wmp7xxKqI-87">
          <mxGeometry relative="1" as="geometry">
            <Array as="points">
              <mxPoint x="1340" y="571" />
              <mxPoint x="1340" y="890" />
              <mxPoint x="644" y="890" />
            </Array>
          </mxGeometry>
        </mxCell>
        <mxCell id="0vWYwco79I7wmp7xxKqI-122" value="NO" style="edgeLabel;html=1;align=center;verticalAlign=middle;resizable=0;points=[];" vertex="1" connectable="0" parent="0vWYwco79I7wmp7xxKqI-121">
          <mxGeometry x="-0.9085" y="1" relative="1" as="geometry">
            <mxPoint as="offset" />
          </mxGeometry>
        </mxCell>
      </root>
    </mxGraphModel>
  </diagram>
</mxfile>
